<mxfile host="65bd71144e" modified="2020-12-11T17:28:53.669Z" agent="5.0 (Macintosh; Intel Mac OS X 10_16_0) AppleWebKit/537.36 (KHTML, like Gecko) Code/1.51.1 Chrome/83.0.4103.122 Electron/9.3.3 Safari/537.36" version="13.10.0" etag="uBlSg-mAURSKItLP9Y82" type="embed">
    <diagram id="tzC2KhjXUtBrnigC-W3a" name="Page-1">
        <mxGraphModel dx="897" dy="670" grid="1" gridSize="10" guides="1" tooltips="1" connect="1" arrows="1" fold="1" page="1" pageScale="1" pageWidth="827" pageHeight="1169" math="0" shadow="0">
            <root>
                <mxCell id="0"/>
                <mxCell id="1" parent="0"/>
                <mxCell id="2" value="" style="rounded=0;whiteSpace=wrap;html=1;fillColor=#FFFFFF;" vertex="1" parent="1">
                    <mxGeometry x="40" y="40" width="1150" height="700" as="geometry"/>
                </mxCell>
                <mxCell id="3" value="&amp;nbsp; &amp;nbsp; &lt;b&gt;&lt;font style=&quot;font-size: 24px&quot; face=&quot;Verdana&quot;&gt;&lt;i&gt;Dragonne&lt;/i&gt;&lt;/font&gt;&lt;/b&gt;" style="rounded=0;whiteSpace=wrap;html=1;fillColor=#1ba1e2;strokeColor=#006EAF;fontColor=#ffffff;align=left;" vertex="1" parent="1">
                    <mxGeometry x="40" y="40" width="1150" height="70" as="geometry"/>
                </mxCell>
                <mxCell id="4" value="&lt;font style=&quot;font-size: 16px&quot;&gt;Dashboard.&amp;nbsp; &amp;nbsp;Classes.&amp;nbsp; &amp;nbsp;Members&lt;/font&gt;" style="text;html=1;strokeColor=none;fillColor=none;align=left;verticalAlign=middle;whiteSpace=wrap;rounded=0;" vertex="1" parent="1">
                    <mxGeometry x="897" y="65" width="293" height="20" as="geometry"/>
                </mxCell>
                <mxCell id="5" value="" style="rounded=1;whiteSpace=wrap;html=1;fillColor=#1ba1e2;strokeColor=#006EAF;fontColor=#ffffff;" vertex="1" parent="1">
                    <mxGeometry x="120" y="200" width="990" height="460" as="geometry"/>
                </mxCell>
                <mxCell id="6" value="&lt;font color=&quot;#333333&quot; style=&quot;font-size: 18px&quot;&gt;Dashboard&lt;/font&gt;" style="text;html=1;strokeColor=none;fillColor=none;align=left;verticalAlign=middle;whiteSpace=wrap;rounded=0;" vertex="1" parent="1">
                    <mxGeometry x="120" y="140" width="110" height="30" as="geometry"/>
                </mxCell>
                <mxCell id="7" value="Contact us" style="rounded=0;whiteSpace=wrap;html=1;fillColor=#1ba1e2;strokeColor=#006EAF;fontColor=#ffffff;align=left;" vertex="1" parent="1">
                    <mxGeometry x="40" y="700" width="1150" height="40" as="geometry"/>
                </mxCell>
                <mxCell id="8" value="" style="rounded=0;whiteSpace=wrap;html=1;fillColor=#FFFFFF;" vertex="1" parent="1">
                    <mxGeometry x="480" y="240" width="590" height="380" as="geometry"/>
                </mxCell>
                <mxCell id="9" value="" style="rounded=0;whiteSpace=wrap;html=1;fillColor=#FFFFFF;sketch=0;glass=0;shadow=0;" vertex="1" parent="1">
                    <mxGeometry x="180" y="240" width="260" height="180" as="geometry"/>
                </mxCell>
                <mxCell id="10" value="" style="rounded=0;whiteSpace=wrap;html=1;fillColor=#FFFFFF;" vertex="1" parent="1">
                    <mxGeometry x="180" y="450" width="120" height="170" as="geometry"/>
                </mxCell>
                <mxCell id="11" value="" style="rounded=0;whiteSpace=wrap;html=1;fillColor=#FFFFFF;" vertex="1" parent="1">
                    <mxGeometry x="320" y="450" width="120" height="170" as="geometry"/>
                </mxCell>
                <mxCell id="12" value="" style="endArrow=none;html=1;entryX=0;entryY=1;entryDx=0;entryDy=0;strokeColor=#000000;exitX=1;exitY=0;exitDx=0;exitDy=0;" edge="1" parent="1" source="9" target="9">
                    <mxGeometry width="50" height="50" relative="1" as="geometry">
                        <mxPoint x="450" y="380" as="sourcePoint"/>
                        <mxPoint x="500" y="330" as="targetPoint"/>
                    </mxGeometry>
                </mxCell>
                <mxCell id="14" value="" style="endArrow=none;html=1;entryX=0;entryY=1;entryDx=0;entryDy=0;strokeColor=#000000;exitX=0;exitY=0;exitDx=0;exitDy=0;" edge="1" parent="1" source="9">
                    <mxGeometry width="50" height="50" relative="1" as="geometry">
                        <mxPoint x="700" y="240" as="sourcePoint"/>
                        <mxPoint x="440" y="420" as="targetPoint"/>
                    </mxGeometry>
                </mxCell>
                <mxCell id="15" value="" style="endArrow=none;html=1;entryX=0;entryY=1;entryDx=0;entryDy=0;strokeColor=#000000;exitX=1;exitY=0;exitDx=0;exitDy=0;" edge="1" parent="1" source="8" target="8">
                    <mxGeometry width="50" height="50" relative="1" as="geometry">
                        <mxPoint x="890" y="320" as="sourcePoint"/>
                        <mxPoint x="630" y="500" as="targetPoint"/>
                    </mxGeometry>
                </mxCell>
                <mxCell id="16" value="" style="endArrow=none;html=1;entryX=1;entryY=1;entryDx=0;entryDy=0;strokeColor=#000000;exitX=0;exitY=0;exitDx=0;exitDy=0;" edge="1" parent="1" source="8" target="8">
                    <mxGeometry width="50" height="50" relative="1" as="geometry">
                        <mxPoint x="630" y="320" as="sourcePoint"/>
                        <mxPoint x="890" y="500" as="targetPoint"/>
                    </mxGeometry>
                </mxCell>
                <mxCell id="17" value="" style="endArrow=none;html=1;entryX=0;entryY=1;entryDx=0;entryDy=0;strokeColor=#000000;exitX=1;exitY=0;exitDx=0;exitDy=0;" edge="1" parent="1" source="10" target="10">
                    <mxGeometry width="50" height="50" relative="1" as="geometry">
                        <mxPoint x="450" y="440" as="sourcePoint"/>
                        <mxPoint x="190" y="620" as="targetPoint"/>
                    </mxGeometry>
                </mxCell>
                <mxCell id="18" value="" style="endArrow=none;html=1;entryX=1;entryY=1;entryDx=0;entryDy=0;strokeColor=#000000;exitX=0;exitY=0;exitDx=0;exitDy=0;" edge="1" parent="1" source="10" target="10">
                    <mxGeometry width="50" height="50" relative="1" as="geometry">
                        <mxPoint x="190" y="440" as="sourcePoint"/>
                        <mxPoint x="450" y="620" as="targetPoint"/>
                    </mxGeometry>
                </mxCell>
                <mxCell id="19" value="" style="endArrow=none;html=1;entryX=0;entryY=1;entryDx=0;entryDy=0;strokeColor=#000000;exitX=1;exitY=0;exitDx=0;exitDy=0;" edge="1" parent="1">
                    <mxGeometry width="50" height="50" relative="1" as="geometry">
                        <mxPoint x="440" y="450" as="sourcePoint"/>
                        <mxPoint x="320" y="620" as="targetPoint"/>
                    </mxGeometry>
                </mxCell>
                <mxCell id="20" value="" style="endArrow=none;html=1;entryX=1;entryY=1;entryDx=0;entryDy=0;strokeColor=#000000;exitX=0;exitY=0;exitDx=0;exitDy=0;" edge="1" parent="1">
                    <mxGeometry width="50" height="50" relative="1" as="geometry">
                        <mxPoint x="320" y="450" as="sourcePoint"/>
                        <mxPoint x="440" y="620" as="targetPoint"/>
                    </mxGeometry>
                </mxCell>
                <mxCell id="21" value="" style="rounded=0;whiteSpace=wrap;html=1;fillColor=#FFFFFF;" vertex="1" parent="1">
                    <mxGeometry x="40" y="800" width="1150" height="700" as="geometry"/>
                </mxCell>
                <mxCell id="22" value="&amp;nbsp; &amp;nbsp; &lt;b&gt;&lt;font style=&quot;font-size: 24px&quot; face=&quot;Verdana&quot;&gt;&lt;i&gt;Dragonne&lt;/i&gt;&lt;/font&gt;&lt;/b&gt;" style="rounded=0;whiteSpace=wrap;html=1;fillColor=#1ba1e2;strokeColor=#006EAF;fontColor=#ffffff;align=left;" vertex="1" parent="1">
                    <mxGeometry x="40" y="800" width="1150" height="70" as="geometry"/>
                </mxCell>
                <mxCell id="23" value="&lt;font style=&quot;font-size: 16px&quot;&gt;Dashboard.&amp;nbsp; &amp;nbsp;Classes.&amp;nbsp; &amp;nbsp;Members&lt;/font&gt;" style="text;html=1;strokeColor=none;fillColor=none;align=left;verticalAlign=middle;whiteSpace=wrap;rounded=0;" vertex="1" parent="1">
                    <mxGeometry x="897" y="825" width="293" height="20" as="geometry"/>
                </mxCell>
                <mxCell id="24" value="" style="rounded=1;whiteSpace=wrap;html=1;fillColor=#1ba1e2;strokeColor=#006EAF;fontColor=#ffffff;" vertex="1" parent="1">
                    <mxGeometry x="120" y="960" width="990" height="460" as="geometry"/>
                </mxCell>
                <mxCell id="25" value="&lt;font style=&quot;font-size: 18px&quot;&gt;Classes&lt;/font&gt;" style="text;html=1;strokeColor=none;fillColor=none;align=left;verticalAlign=middle;whiteSpace=wrap;rounded=0;fontColor=#000099;" vertex="1" parent="1">
                    <mxGeometry x="120" y="900" width="110" height="30" as="geometry"/>
                </mxCell>
                <mxCell id="26" value="Contact us" style="rounded=0;whiteSpace=wrap;html=1;fillColor=#1ba1e2;strokeColor=#006EAF;fontColor=#ffffff;align=left;" vertex="1" parent="1">
                    <mxGeometry x="40" y="1460" width="1150" height="40" as="geometry"/>
                </mxCell>
                <mxCell id="30" value="&lt;b style=&quot;font-size: 14px&quot;&gt;&lt;font style=&quot;font-size: 14px&quot;&gt;&amp;nbsp; &amp;nbsp; &amp;nbsp;Just Skate&lt;br&gt;&lt;br&gt;&lt;/font&gt;&lt;/b&gt;" style="rounded=1;whiteSpace=wrap;html=1;strokeColor=#006EAF;align=left;verticalAlign=top;fontColor=#000099;fillColor=#FFFFFF;" vertex="1" parent="1">
                    <mxGeometry x="170" y="990" width="350" height="360" as="geometry"/>
                </mxCell>
                <mxCell id="31" value="12/12/2020&lt;br style=&quot;font-size: 14px;&quot;&gt;08:00 - 09:00" style="text;html=1;strokeColor=none;fillColor=none;align=right;verticalAlign=middle;whiteSpace=wrap;rounded=0;shadow=0;glass=0;sketch=0;fontSize=14;fontColor=#000099;" vertex="1" parent="1">
                    <mxGeometry x="400" y="1010" width="90" height="30" as="geometry"/>
                </mxCell>
                <mxCell id="32" value="Bookings: 2/10&lt;br&gt;&lt;br&gt;&lt;ul&gt;&lt;li&gt;Dario Cologna&lt;/li&gt;&lt;li&gt;Guido Van Rossum&lt;/li&gt;&lt;/ul&gt;" style="text;html=1;strokeColor=none;fillColor=none;align=left;verticalAlign=middle;whiteSpace=wrap;rounded=0;shadow=0;glass=0;sketch=0;fontSize=14;fontColor=#000099;" vertex="1" parent="1">
                    <mxGeometry x="199" y="1070" width="170" height="100" as="geometry"/>
                </mxCell>
                <mxCell id="33" value="Edit class" style="rounded=1;whiteSpace=wrap;html=1;shadow=0;glass=0;sketch=0;fontSize=14;align=center;labelBackgroundColor=none;fillColor=#4C0099;" vertex="1" parent="1">
                    <mxGeometry x="199" y="1290" width="100" height="40" as="geometry"/>
                </mxCell>
                <mxCell id="34" value="Delete class" style="rounded=1;whiteSpace=wrap;html=1;shadow=0;glass=0;sketch=0;fontSize=14;align=center;labelBackgroundColor=none;strokeColor=#6F0000;fontColor=#ffffff;fillColor=#990000;" vertex="1" parent="1">
                    <mxGeometry x="390" y="1290" width="100" height="40" as="geometry"/>
                </mxCell>
                <mxCell id="35" value="+ Add booking" style="rounded=1;whiteSpace=wrap;html=1;shadow=0;glass=0;sketch=0;fontSize=14;align=center;labelBackgroundColor=none;fillColor=#000099;" vertex="1" parent="1">
                    <mxGeometry x="240" y="1170" width="100" height="40" as="geometry"/>
                </mxCell>
                <mxCell id="36" value="+ Add New Class" style="rounded=1;whiteSpace=wrap;html=1;shadow=0;glass=0;sketch=0;fontSize=14;align=center;labelBackgroundColor=none;strokeColor=#3700CC;fontColor=#ffffff;fillColor=#000099;" vertex="1" parent="1">
                    <mxGeometry x="530" y="895" width="160" height="40" as="geometry"/>
                </mxCell>
                <mxCell id="37" value="&lt;b style=&quot;font-size: 14px&quot;&gt;&lt;font style=&quot;font-size: 14px&quot;&gt;&amp;nbsp; &amp;nbsp; &amp;nbsp;Just Skate&lt;br&gt;&lt;br&gt;&lt;/font&gt;&lt;/b&gt;" style="rounded=1;whiteSpace=wrap;html=1;strokeColor=#006EAF;align=left;verticalAlign=top;fontColor=#000099;fillColor=#FFFFFF;" vertex="1" parent="1">
                    <mxGeometry x="720" y="990" width="350" height="360" as="geometry"/>
                </mxCell>
                <mxCell id="38" value="12/12/2020&lt;br style=&quot;font-size: 14px;&quot;&gt;08:00 - 09:00" style="text;html=1;strokeColor=none;fillColor=none;align=right;verticalAlign=middle;whiteSpace=wrap;rounded=0;shadow=0;glass=0;sketch=0;fontSize=14;fontColor=#000099;" vertex="1" parent="1">
                    <mxGeometry x="950" y="1010" width="90" height="30" as="geometry"/>
                </mxCell>
                <mxCell id="39" value="Bookings: 2/10&lt;br&gt;&lt;br&gt;&lt;ul&gt;&lt;li&gt;Dario Cologna&lt;/li&gt;&lt;li&gt;Guido Van Rossum&lt;/li&gt;&lt;/ul&gt;" style="text;html=1;strokeColor=none;fillColor=none;align=left;verticalAlign=middle;whiteSpace=wrap;rounded=0;shadow=0;glass=0;sketch=0;fontSize=14;fontColor=#000099;" vertex="1" parent="1">
                    <mxGeometry x="749" y="1070" width="170" height="100" as="geometry"/>
                </mxCell>
                <mxCell id="40" value="Edit class" style="rounded=1;whiteSpace=wrap;html=1;shadow=0;glass=0;sketch=0;fontSize=14;align=center;labelBackgroundColor=none;fillColor=#4C0099;" vertex="1" parent="1">
                    <mxGeometry x="749" y="1290" width="100" height="40" as="geometry"/>
                </mxCell>
                <mxCell id="41" value="Delete class" style="rounded=1;whiteSpace=wrap;html=1;shadow=0;glass=0;sketch=0;fontSize=14;align=center;labelBackgroundColor=none;strokeColor=#6F0000;fontColor=#ffffff;fillColor=#990000;" vertex="1" parent="1">
                    <mxGeometry x="940" y="1290" width="100" height="40" as="geometry"/>
                </mxCell>
                <mxCell id="42" value="+ Add booking" style="rounded=1;whiteSpace=wrap;html=1;shadow=0;glass=0;sketch=0;fontSize=14;align=center;labelBackgroundColor=none;fillColor=#000099;" vertex="1" parent="1">
                    <mxGeometry x="790" y="1170" width="100" height="40" as="geometry"/>
                </mxCell>
            </root>
        </mxGraphModel>
    </diagram>
</mxfile>